<svg width="190" height="77" viewBox="0 0 190 77" fill="none" xmlns="http://www.w3.org/2000/svg">
<path d="M11.8118 75.8623L0 46.5407H10.8968L16.5532 62.8859L22.2095 46.5407H32.94L21.1282 75.8623H11.8118Z" fill="white"/>
<path d="M34.2098 75.6543V46.5407H43.9421V75.6543H34.2098Z" fill="white"/>
<path d="M59.8864 76.195C53.9389 76.195 48.6568 74.573 44.9552 71.2873L50.1541 65.0902C53.315 67.5441 56.8918 68.5007 60.3439 68.5007C62.1323 68.5007 62.8393 68.0432 62.8393 67.253V67.1698C62.8393 66.338 61.9243 65.8805 58.805 65.2566C52.2752 63.9257 46.5357 62.0541 46.5357 55.8986V55.8155C46.5357 50.2839 50.9027 46 58.8882 46C64.5445 46 68.662 47.3309 72.0309 49.9927L67.2895 56.5641C64.503 54.5677 61.2589 53.6943 58.5555 53.6943C57.0998 53.6943 56.4343 54.1934 56.4343 54.9005V54.9836C56.4343 55.7739 57.183 56.3145 60.3023 56.8552C67.747 58.1861 72.738 60.432 72.738 66.2548V66.338C72.738 72.4518 67.7055 76.195 59.8864 76.195Z" fill="white"/>
<path d="M89.0442 76.2366C80.3933 76.2366 74.7369 72.2439 74.7369 62.5948V46.5407H84.6356V62.47C84.6356 66.0884 86.5071 67.6273 89.1274 67.6273C91.7892 67.6273 93.6192 66.2132 93.6192 62.678V46.5407H103.518V62.3868C103.518 72.327 97.7367 76.2366 89.0442 76.2366Z" fill="white"/>
<path d="M103.206 75.6543L115.475 46.3327H125.124L137.393 75.6543H126.829L125.29 71.7448H115.101L113.603 75.6543H103.206ZM117.554 64.8407H122.878L120.216 57.7702L117.554 64.8407Z" fill="white"/>
<path d="M138.591 75.6543V46.5407H148.324V67.3361H162.007V75.6543H138.591Z" fill="white"/>
<path d="M176.658 76.195C170.71 76.195 165.428 74.573 161.727 71.2873L166.925 65.0902C170.086 67.5441 173.663 68.5007 177.115 68.5007C178.904 68.5007 179.611 68.0432 179.611 67.253V67.1698C179.611 66.338 178.696 65.8805 175.576 65.2566C169.047 63.9257 163.307 62.0541 163.307 55.8986V55.8155C163.307 50.2839 167.674 46 175.66 46C181.316 46 185.433 47.3309 188.802 49.9927L184.061 56.5641C181.274 54.5677 178.03 53.6943 175.327 53.6943C173.871 53.6943 173.206 54.1934 173.206 54.9005V54.9836C173.206 55.7739 173.954 56.3145 177.074 56.8552C184.518 58.1861 189.509 60.432 189.509 66.2548V66.338C189.509 72.4518 184.477 76.195 176.658 76.195Z" fill="white"/>
<path d="M18.5677 35.0004V14.1217H10V5.88672H36.8677V14.1217H28.3V35.0004H18.5677Z" fill="white"/>
<path d="M53.1246 35.5826C44.4737 35.5826 38.8173 31.5899 38.8173 21.9408V5.88672H48.7159V21.816C48.7159 25.4344 50.5875 26.9733 53.2078 26.9733C55.8696 26.9733 57.6996 25.5592 57.6996 22.024V5.88672H67.5982V21.7329C67.5982 31.6731 61.8171 35.5826 53.1246 35.5826Z" fill="white"/>
<path d="M70.6662 35.0004V5.88672H84.8903C90.0891 5.88672 93.3332 7.17604 95.3712 9.21399C97.1596 11.0024 98.033 13.1235 98.033 16.1181V16.2013C98.033 20.4851 95.8287 23.3965 92.2935 25.1017L99.0728 35.0004H87.968L82.478 26.6822H80.3985V35.0004H70.6662ZM80.3985 19.7365H84.5991C86.9282 19.7365 88.3423 18.6967 88.3423 16.9083V16.8251C88.3423 14.9535 86.9282 14.0385 84.6407 14.0385H80.3985V19.7365Z" fill="white"/>
<path d="M100.397 35.0004V5.88672H109.506L119.862 18.7383V5.88672H129.511V35.0004H120.86L110.046 21.5665V35.0004H100.397Z" fill="white"/>
<rect x="138.186" width="42" height="42" fill="#FF0000"/>
<path d="M164.692 6L164.692 34.8858L154.9 34.8858L154.9 14.7555L148.186 14.7557L153.081 6L164.692 6Z" fill="white"/>
</svg>
