<svg width="134" height="54" viewBox="0 0 134 54" fill="none" xmlns="http://www.w3.org/2000/svg">
<path d="M39.8011 16.3677L32.312 16.3677L32.312 54L13.5892 54L13.5892 16.3677L1.54961e-06 16.3682L9.36141 2.046e-07L49.1626 1.07448e-06L39.8011 16.3677Z" fill="black"/>
<path d="M75.6424 6.89795e-07L75.6424 54L56.9196 54L56.9196 16.3677L44.0811 16.3682L53.4425 2.046e-07L75.6424 6.89795e-07Z" fill="#FF0000"/>
<rect x="79" width="19" height="54" fill="black"/>
<path d="M133.453 8.11904e-07L102.568 54L96.3047 54L96.3047 27.4519L112.005 3.43151e-07L133.453 8.11904e-07Z" fill="black"/>
<path d="M39.8011 16.3677L32.312 16.3677L32.312 54L13.5892 54L13.5892 16.3677L1.54961e-06 16.3682L9.36141 2.046e-07L49.1626 1.07448e-06L39.8011 16.3677Z" fill="black"/>
</svg>
