<svg width="365" height="42" viewBox="0 0 365 42" fill="none" xmlns="http://www.w3.org/2000/svg">
<rect x="128.186" width="42" height="42" fill="#FF0000"/>
<path d="M8.56773 35V14.1214H0V5.88635H26.8677V14.1214H18.3V35H8.56773Z" fill="white"/>
<path d="M43.1246 35.5823C34.4737 35.5823 28.8173 31.5895 28.8173 21.9404V5.88635H38.7159V21.8157C38.7159 25.4341 40.5875 26.9729 43.2078 26.9729C45.8696 26.9729 47.6996 25.5589 47.6996 22.0236V5.88635H57.5982V21.7325C57.5982 31.6727 51.8171 35.5823 43.1246 35.5823Z" fill="white"/>
<path d="M60.6662 35V5.88635H74.8903C80.0891 5.88635 83.3332 7.17567 85.3712 9.21363C87.1596 11.002 88.033 13.1232 88.033 16.1177V16.2009C88.033 20.4848 85.8287 23.3961 82.2935 25.1014L89.0728 35H77.968L72.478 26.6818H70.3985V35H60.6662ZM70.3985 19.7361H74.5991C76.9282 19.7361 78.3423 18.6964 78.3423 16.9079V16.8248C78.3423 14.9532 76.9282 14.0382 74.6407 14.0382H70.3985V19.7361Z" fill="white"/>
<path d="M90.3972 35V5.88635H99.5056L109.862 18.7379V5.88635H119.511V35H110.86L100.046 21.5661V35H90.3972Z" fill="white"/>
<path d="M186.54 35.208L174.728 5.88639H185.625L191.281 22.2316L196.938 5.88639H207.668L195.856 35.208H186.54Z" fill="white"/>
<path d="M208.938 35V5.88639H218.67V35H208.938Z" fill="white"/>
<path d="M234.615 35.5407C228.667 35.5407 223.385 33.9187 219.683 30.633L224.882 24.4359C228.043 26.8898 231.62 27.8464 235.072 27.8464C236.861 27.8464 237.568 27.3889 237.568 26.5987V26.5155C237.568 25.6837 236.653 25.2262 233.533 24.6023C227.003 23.2714 221.264 21.3998 221.264 15.2443V15.1612C221.264 9.62957 225.631 5.3457 233.616 5.3457C239.273 5.3457 243.39 6.67661 246.759 9.33843L242.018 15.9098C239.231 13.9134 235.987 13.04 233.284 13.04C231.828 13.04 231.163 13.5391 231.163 14.2462V14.3293C231.163 15.1196 231.911 15.6602 235.031 16.2009C242.475 17.5318 247.466 19.7778 247.466 25.6005V25.6837C247.466 31.7975 242.434 35.5407 234.615 35.5407Z" fill="white"/>
<path d="M263.772 35.5823C255.122 35.5823 249.465 31.5896 249.465 21.9405V5.88639H259.364V21.8157C259.364 25.4341 261.235 26.973 263.856 26.973C266.517 26.973 268.347 25.5589 268.347 22.0237V5.88639H278.246V21.7325C278.246 31.6727 272.465 35.5823 263.772 35.5823Z" fill="white"/>
<path d="M277.934 35L290.203 5.67843H299.852L312.122 35H301.557L300.019 31.0905H289.829L288.332 35H277.934ZM292.283 24.1864H297.606L294.945 17.1159L292.283 24.1864Z" fill="white"/>
<path d="M313.32 35V5.88639H323.052V26.6818H336.735V35H313.32Z" fill="white"/>
<path d="M351.386 35.5407C345.438 35.5407 340.156 33.9187 336.455 30.633L341.654 24.4359C344.815 26.8898 348.391 27.8464 351.843 27.8464C353.632 27.8464 354.339 27.3889 354.339 26.5987V26.5155C354.339 25.6837 353.424 25.2262 350.305 24.6023C343.775 23.2714 338.035 21.3998 338.035 15.2443V15.1612C338.035 9.62957 342.402 5.3457 350.388 5.3457C356.044 5.3457 360.162 6.67661 363.531 9.33843L358.789 15.9098C356.003 13.9134 352.758 13.04 350.055 13.04C348.599 13.04 347.934 13.5391 347.934 14.2462V14.3293C347.934 15.1196 348.683 15.6602 351.802 16.2009C359.247 17.5318 364.238 19.7778 364.238 25.6005V25.6837C364.238 31.7975 359.205 35.5407 351.386 35.5407Z" fill="white"/>
<path d="M154.692 6L154.692 34.8858L144.9 34.8858L144.9 14.7555L138.186 14.7557L143.082 6L154.692 6Z" fill="white"/>
</svg>
